<?xml version="1.0" standalone="no"?>
<!DOCTYPE svg PUBLIC "-//W3C//DTD SVG 20010904//EN"
 "http://www.w3.org/TR/2001/REC-SVG-20010904/DTD/svg10.dtd">
<svg version="1.0" xmlns="http://www.w3.org/2000/svg"
 width="292.000000pt" height="292.000000pt" viewBox="0 0 292.000000 292.000000"
 preserveAspectRatio="xMidYMid meet">
<metadata>
Created by potrace 1.14, written by Peter Selinger 2001-2017
</metadata>
<g transform="translate(0.000000,292.000000) scale(0.100000,-0.100000)"
fill="#000000" stroke="none">
<path d="M1470 2893 c0 -7 -3 -12 -7 -12 -5 1 -68 1 -140 0 -111 -1 -133 -3
-133 -16 0 -12 -14 -15 -70 -15 -38 0 -70 -4 -70 -9 0 -4 -19 -11 -42 -14 -24
-3 -44 -11 -46 -16 -2 -6 -17 -11 -33 -11 -19 0 -29 -5 -29 -15 0 -10 -10 -15
-30 -15 -20 0 -30 -5 -30 -15 0 -9 -9 -15 -25 -15 -16 0 -25 -6 -25 -15 0 -10
-10 -15 -30 -15 -20 0 -30 -5 -30 -15 0 -10 -10 -15 -30 -15 -20 0 -30 -5 -30
-15 0 -8 -7 -15 -15 -15 -8 0 -15 -7 -15 -15 0 -10 -10 -15 -30 -15 -16 0 -30
-5 -30 -11 0 -14 -25 -39 -39 -39 -6 0 -11 -7 -11 -15 0 -8 -7 -15 -15 -15 -8
0 -15 -7 -15 -15 0 -8 -7 -15 -15 -15 -8 0 -15 -7 -15 -15 0 -8 -7 -15 -15
-15 -8 0 -15 -7 -15 -15 0 -8 -7 -15 -15 -15 -8 0 -15 -7 -15 -15 0 -8 -7 -15
-15 -15 -8 0 -15 -7 -15 -15 0 -8 -7 -15 -15 -15 -8 0 -15 -5 -15 -11 0 -14
-25 -39 -39 -39 -6 0 -11 -13 -11 -30 0 -20 -5 -30 -15 -30 -8 0 -15 -7 -15
-15 0 -8 -7 -15 -15 -15 -10 0 -15 -10 -15 -30 0 -20 -5 -30 -15 -30 -10 0
-15 -10 -15 -30 0 -20 -5 -30 -15 -30 -9 0 -15 -9 -15 -24 0 -13 -7 -26 -15
-30 -8 -3 -15 -17 -15 -31 0 -16 -6 -25 -15 -25 -10 0 -15 -10 -15 -30 0 -16
-4 -30 -10 -30 -5 0 -10 -18 -10 -40 0 -27 -5 -43 -15 -46 -11 -5 -15 -23 -15
-75 0 -55 -3 -69 -15 -69 -13 0 -15 -21 -15 -128 0 -86 -4 -132 -12 -140 -9
-9 -9 -12 0 -12 9 0 12 -37 12 -135 0 -113 2 -135 15 -135 12 0 15 -14 15 -70
0 -56 3 -70 15 -70 11 0 15 -12 15 -45 0 -25 5 -45 10 -45 6 0 10 -11 10 -25
0 -14 7 -28 15 -31 8 -4 15 -17 15 -30 0 -15 6 -24 15 -24 10 0 15 -10 15 -30
0 -20 5 -30 15 -30 10 0 15 -10 15 -30 0 -20 5 -30 15 -30 10 0 15 -10 15 -30
0 -20 5 -30 15 -30 8 0 15 -7 15 -15 0 -8 7 -15 15 -15 9 0 15 -9 15 -25 0
-16 6 -25 15 -25 8 0 15 -7 15 -15 0 -8 7 -15 15 -15 8 0 15 -7 15 -15 0 -8 7
-15 15 -15 8 0 15 -7 15 -15 0 -8 5 -15 10 -15 6 0 10 -7 10 -15 0 -8 7 -15
15 -15 8 0 15 -7 15 -15 0 -8 7 -15 15 -15 8 0 15 -4 15 -10 0 -5 7 -10 15
-10 8 0 15 -7 15 -15 0 -8 7 -15 15 -15 8 0 15 -7 15 -15 0 -8 7 -15 15 -15 8
0 15 -7 15 -15 0 -8 7 -15 15 -15 8 0 15 -7 15 -15 0 -9 9 -15 25 -15 16 0 25
-6 25 -15 0 -8 7 -15 15 -15 8 0 15 -7 15 -15 0 -10 10 -15 30 -15 20 0 30 -5
30 -15 0 -10 10 -15 30 -15 20 0 30 -5 30 -15 0 -10 10 -15 30 -15 17 0 30 -4
30 -10 0 -5 11 -12 25 -16 14 -3 25 -10 25 -15 0 -5 14 -9 30 -9 20 0 30 -5
30 -15 0 -11 12 -15 45 -15 33 0 45 -4 45 -15 0 -12 14 -15 70 -15 56 0 70 -3
70 -15 0 -13 37 -15 275 -15 238 0 275 2 275 15 0 12 14 15 70 15 56 0 70 3
70 15 0 11 12 15 45 15 33 0 45 4 45 15 0 10 10 15 30 15 20 0 30 5 30 15 0 9
9 15 25 15 14 0 25 5 25 10 0 6 14 10 30 10 20 0 30 5 30 15 0 10 10 15 30 15
20 0 30 5 30 15 0 10 10 15 30 15 20 0 30 5 30 15 0 8 5 15 10 15 6 0 10 7 10
15 0 10 10 15 30 15 20 0 30 5 30 15 0 8 7 15 15 15 8 0 15 7 15 15 0 8 7 15
15 15 8 0 15 7 15 15 0 8 7 15 15 15 8 0 15 7 15 15 0 8 5 15 11 15 14 0 69
55 69 69 0 6 7 11 15 11 8 0 15 7 15 15 0 8 7 15 15 15 8 0 15 7 15 15 0 8 7
15 15 15 8 0 15 7 15 15 0 8 7 15 15 15 10 0 15 10 15 30 0 20 5 30 15 30 8 0
15 5 15 10 0 6 7 10 15 10 10 0 15 10 15 30 0 20 5 30 15 30 10 0 15 10 15 30
0 20 5 30 15 30 10 0 15 10 15 30 0 17 4 30 9 30 5 0 12 11 15 25 4 14 11 25
16 25 6 0 10 14 10 30 0 20 5 30 15 30 11 0 15 12 15 45 0 33 4 45 15 45 12 0
15 14 15 70 0 56 3 70 15 70 13 0 15 37 15 275 0 238 -2 275 -15 275 -12 0
-15 14 -15 70 0 56 -3 70 -15 70 -11 0 -15 12 -15 45 0 33 -4 45 -15 45 -10 0
-15 10 -15 30 0 20 -5 30 -15 30 -9 0 -15 9 -15 24 0 13 -7 26 -15 30 -8 3
-15 17 -15 31 0 14 -4 25 -10 25 -5 0 -10 14 -10 30 0 20 -5 30 -15 30 -10 0
-15 10 -15 30 0 20 -5 30 -15 30 -8 0 -15 7 -15 15 0 8 -7 15 -15 15 -9 0 -15
9 -15 25 0 16 -6 25 -15 25 -8 0 -15 7 -15 15 0 8 -7 15 -15 15 -8 0 -15 7
-15 15 0 8 -7 15 -15 15 -8 0 -15 7 -15 15 0 8 -4 15 -10 15 -5 0 -10 7 -10
15 0 8 -7 15 -15 15 -8 0 -15 7 -15 15 0 8 -7 15 -15 15 -8 0 -15 7 -15 15 0
8 -7 15 -15 15 -8 0 -15 7 -15 15 0 8 -7 15 -15 15 -8 0 -15 7 -15 15 0 8 -5
15 -11 15 -7 0 -22 11 -35 25 -13 14 -32 25 -44 25 -11 0 -20 7 -20 15 0 8 -7
15 -15 15 -8 0 -15 7 -15 15 0 10 -10 15 -30 15 -20 0 -30 5 -30 15 0 10 -10
15 -30 15 -20 0 -30 5 -30 15 0 10 -10 15 -30 15 -20 0 -30 5 -30 15 0 9 -9
15 -24 15 -13 0 -26 7 -30 15 -3 8 -17 15 -31 15 -14 0 -25 5 -25 10 0 6 -18
10 -40 10 -27 0 -43 5 -46 15 -5 11 -23 15 -75 15 -56 0 -69 3 -69 15 0 14
-18 16 -126 14 -97 -1 -128 2 -135 12 -6 10 -9 11 -9 2z"/>
</g>
</svg>
